<?xml version="1.0" encoding="utf-8"?>
<!-- Generator: Adobe Illustrator 16.0.0, SVG Export Plug-In . SVG Version: 6.00 Build 0)  -->
<!DOCTYPE svg PUBLIC "-//W3C//DTD SVG 1.1//EN" "http://www.w3.org/Graphics/SVG/1.1/DTD/svg11.dtd">
<svg version="1.1" xmlns="http://www.w3.org/2000/svg" xmlns:xlink="http://www.w3.org/1999/xlink" x="0px" y="0px" width="440px"
	 height="240px" viewBox="0 0 440 240" enable-background="new 0 0 440 240" xml:space="preserve">
<g id="layout">
</g>
<g id="nav__x2B__footer">
	<rect fill="#F2F2F2" width="440" height="240"/>
	<g>
		<g>
			<rect x="115" y="15" fill="none" width="210" height="210"/>
		</g>
	</g>
	<path fill="#9D9FA2" d="M299.48,69.68l4.46-0.1c0,0,0-0.21,0-0.59c-0.02-0.37-0.08-0.9-0.14-1.54c-0.03-0.32-0.07-0.66-0.11-1.03
		c-0.06-0.36-0.14-0.74-0.21-1.13c-0.08-0.39-0.16-0.8-0.24-1.21c-0.08-0.41-0.23-0.81-0.34-1.22c-0.24-0.82-0.49-1.63-0.82-2.36
		c-0.32-0.73-0.56-1.44-0.89-1.99c-0.61-1.12-1.01-1.86-1.01-1.86l-3.82,2.33c-2.04-3.35-4.85-5.94-8.07-7.69l2.13-3.91
		c0,0-0.19-0.1-0.52-0.27c-0.34-0.16-0.79-0.44-1.38-0.68c-0.59-0.24-1.28-0.51-2.02-0.81c-0.76-0.23-1.58-0.47-2.39-0.71
		c-0.83-0.16-1.67-0.32-2.45-0.47c-0.79-0.08-1.53-0.15-2.17-0.21c-0.63-0.06-1.17-0.02-1.54-0.03c-0.37,0-0.58,0-0.58,0l0.1,4.46
		c-3.66,0.08-7.34,1.09-10.69,3.14l-2.33-3.82c0,0-0.7,0.48-1.76,1.19c-0.54,0.34-1.08,0.86-1.7,1.36c-0.63,0.5-1.22,1.11-1.81,1.72
		c-0.29,0.31-0.61,0.6-0.87,0.93c-0.26,0.33-0.52,0.65-0.77,0.96c-0.25,0.31-0.49,0.61-0.71,0.91c-0.2,0.31-0.39,0.6-0.56,0.86
		c-0.34,0.54-0.64,0.98-0.83,1.3c-0.17,0.33-0.27,0.52-0.27,0.52l3.91,2.13c-1.81,3.32-2.72,7.06-2.63,10.83l-4.46,0.1
		c0,0,0,0.21,0,0.58c0.02,0.37,0.08,0.9,0.14,1.54c0.03,0.32,0.07,0.66,0.11,1.03c0.06,0.36,0.14,0.74,0.21,1.13
		c0.08,0.39,0.16,0.8,0.24,1.21c0.08,0.41,0.23,0.81,0.34,1.22c0.24,0.82,0.49,1.63,0.82,2.36c0.32,0.73,0.56,1.44,0.89,1.99
		c0.61,1.12,1.01,1.86,1.01,1.86l3.82-2.33c2.04,3.35,4.85,5.94,8.07,7.69L265.5,93c0,0,0.19,0.1,0.52,0.27
		c0.34,0.16,0.79,0.44,1.38,0.68c0.59,0.24,1.28,0.51,2.02,0.81c0.76,0.23,1.58,0.46,2.39,0.71c0.83,0.16,1.67,0.32,2.45,0.47
		c0.79,0.08,1.53,0.15,2.17,0.21c0.63,0.06,1.17,0.02,1.54,0.03c0.37,0,0.58,0,0.58,0l-0.1-4.46c3.66-0.08,7.34-1.09,10.69-3.13
		l2.33,3.82c0,0,0.7-0.48,1.76-1.19c0.54-0.34,1.08-0.86,1.7-1.36c0.63-0.49,1.22-1.11,1.81-1.72c0.29-0.31,0.61-0.6,0.87-0.93
		c0.26-0.33,0.52-0.65,0.77-0.96c0.25-0.31,0.49-0.61,0.71-0.91c0.2-0.3,0.39-0.59,0.57-0.86c0.34-0.54,0.64-0.98,0.83-1.3
		c0.17-0.33,0.27-0.52,0.27-0.52l-3.91-2.13C298.65,77.2,299.56,73.46,299.48,69.68z M277.96,77.53c-4.05,0-7.34-3.29-7.34-7.34
		c0-4.05,3.29-7.34,7.34-7.34c4.06,0,7.34,3.29,7.34,7.34C285.3,74.25,282.01,77.53,277.96,77.53z"/>
	<g>
		<g>
			<path fill="#9D9FA2" d="M206.65,167.39c-23.63,0-42.86-19.23-42.86-42.86c0-23.63,19.23-42.86,42.86-42.86
				c23.63,0,42.86,19.23,42.86,42.86C249.51,148.17,230.29,167.39,206.65,167.39z M206.65,93.71c-17,0-30.82,13.83-30.82,30.82
				c0,16.99,13.82,30.82,30.82,30.82s30.82-13.83,30.82-30.82C237.47,107.54,223.65,93.71,206.65,93.71z"/>
		</g>
	</g>
	<g>
		<path fill="#9D9FA2" d="M194.42,105.39c0.18,5.72,1.4,11.18,3.48,16.2l-6.66,2.77c0,0,0.1,0.31,0.36,0.83
			c0.25,0.52,0.6,1.26,1.03,2.15c0.78,1.82,2.19,4.03,3.56,6.27c0.75,1.08,1.55,2.11,2.29,3.1c0.38,0.49,0.71,0.98,1.08,1.4
			c0.38,0.42,0.73,0.81,1.06,1.18c1.33,1.45,2.21,2.42,2.21,2.42l5.11-5.11c2.88,2.88,6.14,5.36,9.7,7.4
			c6.17-4.03,10.26-10.98,10.26-18.88c0-2.2-0.33-4.31-0.92-6.32c-2.83-2.6-4.91-5.98-5.91-9.81c-4.06-3.96-9.61-6.42-15.72-6.42
			C201.38,102.56,197.66,103.59,194.42,105.39z"/>
		<path fill="#9D9FA2" d="M262.72,109.94c0-4.31-0.86-8.42-2.42-12.17l4.58-1.9c0,0-0.07-0.22-0.25-0.57
			c-0.17-0.36-0.41-0.87-0.71-1.48c-0.54-1.25-1.5-2.77-2.45-4.31c-0.51-0.74-1.07-1.45-1.57-2.13c-0.26-0.33-0.49-0.67-0.75-0.96
			c-0.26-0.29-0.51-0.56-0.73-0.81c-0.91-1-1.52-1.67-1.52-1.67l-3.51,3.51c-2.93-2.93-6.43-5.29-10.31-6.9l1.9-4.58
			c0,0-0.85-0.31-2.12-0.78c-0.32-0.11-0.66-0.24-1.03-0.37c-0.38-0.1-0.77-0.2-1.18-0.31c-0.82-0.2-1.69-0.46-2.57-0.63
			c-1.78-0.27-3.57-0.6-4.92-0.6c-1.35-0.06-2.25-0.11-2.25-0.11v4.97c-1.92,0-3.81,0.18-5.63,0.51c18.1,7.38,30.9,25.16,30.9,45.88
			c0,1.7-0.09,3.38-0.25,5.03c1.77-2.26,3.26-4.76,4.37-7.45l4.58,1.9c0,0,0.31-0.85,0.78-2.12c0.12-0.32,0.24-0.67,0.37-1.03
			c0.1-0.38,0.2-0.77,0.31-1.18c0.2-0.82,0.46-1.69,0.63-2.57c0.27-1.78,0.6-3.57,0.6-4.92c0.06-1.35,0.11-2.25,0.11-2.25H262.72z"
			/>
		<path fill="#9D9FA2" d="M216.7,76.03c0.06,0.01,0.12,0.03,0.19,0.04l-0.04-0.1C216.85,75.97,216.8,75.99,216.7,76.03z"/>
		<path fill="#9D9FA2" d="M254.2,138.39c0.08-0.07,0.17-0.13,0.24-0.2c0.29-0.26,0.56-0.5,0.81-0.73c1-0.91,1.66-1.52,1.66-1.52
			l-1.7-1.7C254.94,135.65,254.6,137.03,254.2,138.39z"/>
	</g>
	
		<line fill="none" stroke="#9D9FA2" stroke-width="24" stroke-linecap="round" stroke-miterlimit="10" x1="176.36" y1="154.83" x2="137.54" y2="193.64"/>
</g>
<g id="Menu_ouvert">
</g>
</svg>
