<?xml version="1.0" encoding="utf-8"?>
<!-- Generator: Adobe Illustrator 16.0.0, SVG Export Plug-In . SVG Version: 6.00 Build 0)  -->
<!DOCTYPE svg PUBLIC "-//W3C//DTD SVG 1.1//EN" "http://www.w3.org/Graphics/SVG/1.1/DTD/svg11.dtd">
<svg version="1.1" id="Calque_1" xmlns="http://www.w3.org/2000/svg" xmlns:xlink="http://www.w3.org/1999/xlink" x="0px" y="0px"
	 width="440px" height="240px" viewBox="0 0 440 240" enable-background="new 0 0 440 240" xml:space="preserve">
<g id="layout">
</g>
<rect x="0" fill="#F2F2F2" width="440" height="240"/>
<g id="Menu_ouvert">
</g>
<g>
	<g>
		<g>
			<path fill="#9D9FA2" stroke="#9D9FA2" stroke-width="2" stroke-miterlimit="10" d="M193,150.398h-5.4
				c-1.49,0-2.699,1.209-2.699,2.701c0,1.49,1.209,2.699,2.699,2.699h5.4c1.492,0,2.701-1.209,2.701-2.699
				C195.701,151.607,194.492,150.398,193,150.398z"/>
		</g>
	</g>
	<g>
		<g>
			<path fill="#9D9FA2" stroke="#9D9FA2" stroke-width="2" stroke-miterlimit="10" d="M268.6,150.398h-64.799
				c-1.492,0-2.701,1.209-2.701,2.701c0,1.49,1.209,2.699,2.701,2.699H268.6c1.492,0,2.701-1.209,2.701-2.699
				C271.301,151.607,270.092,150.398,268.6,150.398z"/>
		</g>
	</g>
	<g>
		<g>
			<path fill="#9D9FA2" stroke="#9D9FA2" stroke-width="2" stroke-miterlimit="10" d="M193,134.199h-5.4
				c-1.49,0-2.699,1.209-2.699,2.699c0,1.492,1.209,2.701,2.699,2.701h5.4c1.492,0,2.701-1.209,2.701-2.701
				C195.701,135.408,194.492,134.199,193,134.199z"/>
		</g>
	</g>
	<g>
		<g>
			<path fill="#9D9FA2" stroke="#9D9FA2" stroke-width="2" stroke-miterlimit="10" d="M268.6,134.199h-64.799
				c-1.492,0-2.701,1.209-2.701,2.699c0,1.492,1.209,2.701,2.701,2.701H268.6c1.492,0,2.701-1.209,2.701-2.701
				C271.301,135.408,270.092,134.199,268.6,134.199z"/>
		</g>
	</g>
	<g>
		<g>
			<path fill="#9D9FA2" stroke="#9D9FA2" stroke-width="2" stroke-miterlimit="10" d="M193,118h-5.4c-1.49,0-2.699,1.209-2.699,2.7
				c0,1.49,1.209,2.698,2.699,2.698h5.4c1.492,0,2.701-1.208,2.701-2.698C195.701,119.209,194.492,118,193,118z"/>
		</g>
	</g>
	<g>
		<g>
			<path fill="#9D9FA2" stroke="#9D9FA2" stroke-width="2" stroke-miterlimit="10" d="M268.6,118h-64.799
				c-1.492,0-2.701,1.209-2.701,2.7c0,1.49,1.209,2.698,2.701,2.698H268.6c1.492,0,2.701-1.208,2.701-2.698
				C271.301,119.209,270.092,118,268.6,118z"/>
		</g>
	</g>
	<g>
		<g>
			<path fill="#9D9FA2" stroke="#9D9FA2" stroke-width="2" stroke-miterlimit="10" d="M193,101.8h-5.4
				c-1.49,0-2.699,1.209-2.699,2.7s1.209,2.7,2.699,2.7h5.4c1.492,0,2.701-1.209,2.701-2.7S194.492,101.8,193,101.8z"/>
		</g>
	</g>
	<g>
		<g>
			<path fill="#9D9FA2" stroke="#9D9FA2" stroke-width="2" stroke-miterlimit="10" d="M268.6,101.8h-64.799
				c-1.492,0-2.701,1.209-2.701,2.7s1.209,2.7,2.701,2.7H268.6c1.492,0,2.701-1.209,2.701-2.7S270.092,101.8,268.6,101.8z"/>
		</g>
	</g>
	<g>
		<g>
			<path fill="#9D9FA2" stroke="#9D9FA2" stroke-width="2" stroke-miterlimit="10" d="M193,85.6h-5.4c-1.49,0-2.699,1.209-2.699,2.7
				s1.209,2.7,2.699,2.7h5.4c1.492,0,2.701-1.209,2.701-2.7S194.492,85.6,193,85.6z"/>
		</g>
	</g>
	<g>
		<g>
			<path fill="#9D9FA2" stroke="#9D9FA2" stroke-width="2" stroke-miterlimit="10" d="M268.6,85.6h-64.799
				c-1.492,0-2.701,1.209-2.701,2.7s1.209,2.7,2.701,2.7H268.6c1.492,0,2.701-1.209,2.701-2.7S270.092,85.6,268.6,85.6z"/>
		</g>
	</g>
	<g>
		<g>
			<path fill="#9D9FA2" stroke="#9D9FA2" stroke-width="2" stroke-miterlimit="10" d="M287.465,74.63
				c-0.014-0.236-0.059-0.47-0.137-0.694c-0.029-0.086-0.053-0.17-0.09-0.254c-0.131-0.293-0.314-0.561-0.541-0.791l-37.799-37.8
				c-0.229-0.226-0.496-0.408-0.791-0.54c-0.084-0.037-0.166-0.059-0.252-0.089c-0.225-0.077-0.459-0.125-0.697-0.141
				C247.111,34.33,247.061,34.3,247,34.3h-75.6c-1.49,0-2.699,1.209-2.699,2.7v8.1h-13.5c-1.492,0-2.701,1.209-2.701,2.7v145.8
				c0,1.49,1.209,2.699,2.701,2.699H268.6c1.492,0,2.701-1.209,2.701-2.699v-13.5h13.5c1.49,0,2.699-1.209,2.699-2.701V74.8
				C287.5,74.74,287.471,74.689,287.465,74.63z M249.701,43.518L278.283,72.1h-28.582V43.518z M265.9,190.898h-108V50.5h10.801
				v126.898c0,1.492,1.209,2.701,2.699,2.701h94.5V190.898z M282.1,174.699h-108V39.7h70.201v35.1c0,1.491,1.209,2.7,2.699,2.7h35.1
				V174.699z"/>
		</g>
	</g>
	<g>
		<g>
			<path fill="#9D9FA2" stroke="#9D9FA2" stroke-width="2" stroke-miterlimit="10" d="M203.801,58.6H187.6
				c-1.49,0-2.699,1.209-2.699,2.7v16.2c0,1.491,1.209,2.7,2.699,2.7h16.201c1.49,0,2.699-1.209,2.699-2.7V61.3
				C206.5,59.809,205.291,58.6,203.801,58.6z M201.1,74.8h-10.799V64H201.1V74.8z"/>
		</g>
	</g>
	<g>
	</g>
	<g>
	</g>
	<g>
	</g>
	<g>
	</g>
	<g>
	</g>
	<g>
	</g>
	<g>
	</g>
	<g>
	</g>
	<g>
	</g>
	<g>
	</g>
	<g>
	</g>
	<g>
	</g>
	<g>
	</g>
	<g>
	</g>
	<g>
	</g>
</g>
</svg>
