<?xml version="1.0" encoding="UTF-8"?>
<!-- Generator: Adobe Illustrator 16.0.0, SVG Export Plug-In . SVG Version: 6.00 Build 0)  -->
<svg xmlns="http://www.w3.org/2000/svg" xmlns:xlink="http://www.w3.org/1999/xlink" id="Calque_1" x="0px" y="0px" width="440px" height="240px" viewBox="0 0 440 240" xml:space="preserve">
<rect x="0" fill="#F2F2F2" width="440" height="240"></rect>
<path fill="#9D9FA2" d="M293,113.5H141V85h152 M293,151.5h-66.5v-19H293 M293,189.5h-66.5v-19H293 M207.5,189.5H141v-57h66.5   M296.133,53.367L280.367,37.5L264.5,53.367L248.633,37.5l-15.766,15.867L217,37.5l-15.867,15.867L185.367,37.5L169.5,53.367  L153.633,37.5l-15.766,15.867L122,37.5v152c0,10.492,8.508,19,19,19h152c10.492,0,19-8.508,19-19v-152L296.133,53.367z"></path>
</svg>