<?xml version="1.0" encoding="utf-8"?>
<!-- Generator: Adobe Illustrator 16.0.0, SVG Export Plug-In . SVG Version: 6.00 Build 0)  -->
<!DOCTYPE svg PUBLIC "-//W3C//DTD SVG 1.1//EN" "http://www.w3.org/Graphics/SVG/1.1/DTD/svg11.dtd">
<svg version="1.1" id="Calque_1" xmlns="http://www.w3.org/2000/svg" xmlns:xlink="http://www.w3.org/1999/xlink" x="0px" y="0px"
	 width="440px" height="240px" viewBox="0 0 440 240" enable-background="new 0 0 440 240" xml:space="preserve">
<g id="layout">
</g>
<rect x="3.819" fill="#F2F2F2" width="436.181" height="240"/>
<g>
	<g>
		<rect x="115" y="15" fill="none" width="210" height="210"/>
	</g>
</g>
<g id="Menu_ouvert">
</g>
<g>
	<g id="layout_1_">
		<g opacity="0.3">
			<rect x="156.319" y="43.157" fill="none" width="135" height="134.999"/>
			<g>
				<rect x="176.098" y="97.022" width="27.271" height="27.267"/>
				<rect x="244.201" y="97.022" width="27.276" height="27.267"/>
				<rect x="210.185" y="97.022" width="27.332" height="27.267"/>
				<rect x="210.185" y="131.039" width="27.332" height="27.277"/>
				<path d="M271.61,62.867h-95.582c-7.425,0-13.499,6.074-13.499,13.5v82.014c0,7.424,6.074,13.5,13.499,13.5h95.516
					c7.422,0,13.5-6.076,13.5-13.5V76.367C285.11,68.941,279.032,62.867,271.61,62.867z M278.294,161.756
					c0,1.887-1.49,3.375-3.375,3.375H172.723c-1.892,0-3.375-1.488-3.375-3.375V73.061c0-1.892,1.483-3.375,3.375-3.375h102.13
					c1.886,0,3.375,1.483,3.375,3.375v88.695H278.294z"/>
				<rect x="244.201" y="131.039" width="27.276" height="27.277"/>
				<rect x="176.098" y="131.039" width="27.271" height="27.277"/>
				<rect x="169.009" y="68.605" width="110.769" height="20.25"/>
			</g>
			
				<line fill="none" stroke="#000000" stroke-width="2" stroke-linecap="round" stroke-miterlimit="10" x1="189.799" y1="56.792" x2="189.799" y2="80.417"/>
			
				<line fill="none" stroke="#000000" stroke-width="2" stroke-linecap="round" stroke-miterlimit="10" x1="257.84" y1="56.792" x2="257.84" y2="80.417"/>
		</g>
	</g>
	<g id="nav__x2B__footer_1_">
	</g>
	<g id="Menu_ouvert_1_">
	</g>
</g>
</svg>
