<?xml version="1.0" encoding="utf-8"?>
<!-- Generator: Adobe Illustrator 16.0.0, SVG Export Plug-In . SVG Version: 6.00 Build 0)  -->
<!DOCTYPE svg PUBLIC "-//W3C//DTD SVG 1.1//EN" "http://www.w3.org/Graphics/SVG/1.1/DTD/svg11.dtd">
<svg version="1.1" id="Calque_1" xmlns="http://www.w3.org/2000/svg" xmlns:xlink="http://www.w3.org/1999/xlink" x="0px" y="0px"
	 width="30px" height="30px" viewBox="282.64 405.945 30 30" enable-background="new 282.64 405.945 30 30" xml:space="preserve">
<g>
	<path fill="#221F20" d="M300.443,434.894c-1.55-0.413-2.375-1.033-3.719-2.686c-0.929-1.239-2.685-4.028-3.615-5.474l-0.62-1.137
		h-2.479v3.513c0.104,4.441,0,4.337,1.963,4.647l1.032,0.103v0.414v0.412h-8.263v-0.412c0-0.414,0.104-0.414,0.93-0.62
		c1.033-0.207,1.446-0.517,1.549-1.446c0.103-0.413,0.103-3.201,0.103-8.159c0-7.229-0.103-7.437-0.31-7.953
		c-0.31-0.517-0.723-0.723-1.859-0.827c-0.413-0.103-0.516-0.103-0.516-0.516v-0.413l4.441-0.104c5.68-0.104,6.713,0,8.366,1.136
		c1.549,1.033,2.272,2.479,2.065,4.441c-0.103,2.169-1.755,4.338-3.821,5.164c-0.413,0.103-0.723,0.311-0.723,0.311
		c0,0.206,1.755,2.891,2.892,4.439c1.55,2.17,2.789,3.306,3.719,3.823c0.412,0.206,0.929,0.309,1.032,0.309
		c0.31,0,0.31,0.104,0.31,0.414c0,0.31-0.104,0.516-0.207,0.516c-0.516,0.207-1.962,0.207-2.685,0L300.443,434.894z
		 M294.555,423.636c1.446-0.724,2.272-1.859,2.375-3.615c0.103-1.343-0.207-2.272-1.033-3.098c-0.929-1.033-2.582-1.446-4.958-1.24
		l-1.033,0.104v4.028c0,3.718,0,4.131,0.207,4.131c0.104,0,0.93,0.104,1.859,0c1.446,0,1.755-0.103,2.479-0.413L294.555,423.636z"/>
	<path fill="#221F20" d="M305.607,418.885c-2.582-0.413-3.512-2.065-3.305-6.301c0.103-2.169,0.31-3.098,1.136-3.924
		c0.723-0.723,1.343-0.93,2.582-1.033c1.343-0.103,2.169,0.207,2.996,0.826c0.516,0.413,0.929,1.033,0.929,1.343
		c0,0.103-0.311,0.206-0.62,0.413l-0.619,0.31l-0.31-0.31c-0.517-0.62-0.93-0.93-1.446-1.136c-1.033-0.31-2.065,0.206-2.583,1.136
		c-0.31,0.516-0.31,0.619-0.31,2.995c0,2.272,0,2.582,0.31,2.995c0.414,0.723,1.24,1.136,2.169,1.033
		c1.344-0.104,2.066-1.033,2.066-2.479v-0.723h-1.032h-1.034v-1.343h3.719v1.549c0,1.239-0.104,1.652-0.31,2.272
		c-0.62,1.549-2.375,2.479-4.338,2.272V418.885z"/>
</g>
</svg>
