<?xml version="1.0" encoding="utf-8"?>
<!-- Generator: Adobe Illustrator 16.0.0, SVG Export Plug-In . SVG Version: 6.00 Build 0)  -->
<!DOCTYPE svg PUBLIC "-//W3C//DTD SVG 1.1//EN" "http://www.w3.org/Graphics/SVG/1.1/DTD/svg11.dtd">
<svg version="1.1" id="Calque_1" xmlns="http://www.w3.org/2000/svg" xmlns:xlink="http://www.w3.org/1999/xlink" x="0px" y="0px"
	 width="30px" height="30px" viewBox="282.64 405.945 30 30" enable-background="new 282.64 405.945 30 30" xml:space="preserve">
<g id="Flat_3">
	<path d="M284.711,417.722c0,0,2.215-1.747,2.954-0.873c0.737,0.873,3.556,11.412,4.498,13.355c0.821,1.705,3.085,3.959,5.571,2.349
		c2.481-1.609,10.736-8.657,12.215-16.979c1.478-8.321-9.934-6.578-11.143,0.671c3.021-1.814,4.634,0.736,3.088,3.624
		c-1.544,2.885-2.954,4.767-3.691,4.767c-0.738,0-1.305-1.932-2.147-5.307c-0.873-3.488-0.868-9.771-4.496-9.058
		c-3.422,0.672-7.919,6.042-7.919,6.042L284.711,417.722L284.711,417.722z"/>
</g>
</svg>
