<?xml version="1.0" encoding="utf-8"?>
<!DOCTYPE svg PUBLIC "-//W3C//DTD SVG 1.1//EN" "http://www.w3.org/Graphics/SVG/1.1/DTD/svg11.dtd">
<svg version="1.1" id="Capa_1" xmlns="http://www.w3.org/2000/svg" xmlns:xlink="http://www.w3.org/1999/xlink" x="0px" y="0px"
	 width="30px" height="30px" viewBox="0 0 30 30" enable-background="new 0 0 30 30" xml:space="preserve">
<g>
	<g>
		<path d="M21.516,21.305c0.999-0.018,2.65-0.01,3.648-0.003L25.84,7.819l0.011-5.41L20.83,2.408l0.002,5.46L21.516,21.305z"/>
		<path d="M8.891,2.413C7.476,2.43,5.383,2.426,3.968,2.415L3.959,6.697l4.928,0.001L8.891,2.413z"/>
		<path d="M23.37,23.659c-0.724,0-1.813,0.009-2.538-0.004v4.808c1.434-0.012,3.578-0.011,5.011,0l-0.007-4.808
			C25.145,23.668,24.062,23.659,23.37,23.659z"/>
		<path d="M3.952,28.466H8.92L8.907,12.449l2.521,0.038L11.41,23.945c0,0.582,0.036,1.16,0.109,1.735
			c0.209,1.657,0.915,2.511,2.452,2.816c1.693,0.333,3.626,0.163,5.326-0.019l0.007-3.424c-0.113,0.004-1.14,0.004-1.253,0
			c-1.104-0.038-1.611-0.505-1.615-1.608l0.025-10.996l2.844,0.001l0.002-3.411l-2.888-0.003l0.006-6.624l-5.006-0.001l-0.013,6.605
			L3.939,9.019l0.01,9.718L3.952,28.466z"/>
	</g>
</g>
</svg>
