<?xml version="1.0" encoding="utf-8"?>
<svg version="1.1" xmlns="http://www.w3.org/2000/svg" xmlns:xlink="http://www.w3.org/1999/xlink" x="0px" y="0px" width="30px"
	 height="30px" viewBox="0 0 30 30" enable-background="new 0 0 30 30" xml:space="preserve">
<g>
    <path fill="#FFFFFF" d="M18.67,2.08c-5.18,0-9.4,4.21-9.4,9.4c0,1.87,0.55,3.61,1.5,5.07l-7.74,7.74c-0.78,0.78-0.78,2.05,0,2.83
    c0.39,0.39,0.9,0.59,1.41,0.59s1.02-0.2,1.41-0.59l7.74-7.74c1.46,0.94,3.2,1.5,5.07,1.5c5.18,0,9.39-4.21,9.39-9.4
    S23.85,2.08,18.67,2.08z M18.67,16.87c-2.98,0-5.4-2.42-5.4-5.4s2.42-5.4,5.4-5.4c2.97,0,5.39,2.42,5.39,5.4
    S21.65,16.87,18.67,16.87z"/>
    <rect fill="none" width="30" height="30"/>
</g>
</svg>
