<?xml version="1.0" encoding="utf-8"?>
<!-- Generator: Adobe Illustrator 16.0.0, SVG Export Plug-In . SVG Version: 6.00 Build 0)  -->
<!DOCTYPE svg PUBLIC "-//W3C//DTD SVG 1.1//EN" "http://www.w3.org/Graphics/SVG/1.1/DTD/svg11.dtd">
<svg version="1.1" id="Calque_1" xmlns="http://www.w3.org/2000/svg" xmlns:xlink="http://www.w3.org/1999/xlink" x="0px" y="0px"
	 width="30px" height="30px" viewBox="282.64 405.945 30 30" enable-background="new 282.64 405.945 30 30" xml:space="preserve">
<g>
	<path d="M308.336,431.927c1.538-1.65,2.449-3.872,2.449-6.32c0-2.535-1.024-4.841-2.677-6.521
		c-0.712,5.95-5.837,10.564-12.044,10.536h-2.99c1.509,3.16,4.699,5.324,8.428,5.324l10.138-0.028L308.336,431.927z"/>
	<path d="M303.838,410.201c-1.993-1.964-4.614-3.075-7.433-3.104c-5.809,0-10.536,4.699-10.536,10.508
		c0,2.363,0.797,4.67,2.221,6.492l0.085,0.114l-4.328,3.872l12.558,0.057c5.78,0,10.507-4.697,10.507-10.507
		C306.912,414.814,305.802,412.194,303.838,410.201z M296.406,426.801l-8.969-0.028l2.705-2.448l-0.484-0.512
		c-1.538-1.709-2.392-3.901-2.392-6.237c0-5.011,4.101-9.112,9.141-9.112c2.478,0,4.784,0.968,6.492,2.705
		c1.709,1.738,2.648,4.044,2.648,6.493C305.546,422.701,301.446,426.801,296.406,426.801z"/>
	<path d="M298.341,419.341c-0.397,0-0.768,0.143-1.081,0.398l-2.42-1.594c0.085-0.2,0.142-0.456,0.142-0.684
		c0-0.228-0.057-0.456-0.142-0.655l2.449-1.765c0.285,0.228,0.655,0.37,1.024,0.37c0.94,0,1.681-0.74,1.681-1.68
		c0-0.939-0.74-1.68-1.681-1.68c-0.938,0-1.679,0.741-1.679,1.68c0,0.2,0.028,0.37,0.085,0.57l-2.506,1.794
		c-0.284-0.199-0.598-0.313-0.968-0.313c-0.939,0-1.68,0.741-1.68,1.68s0.741,1.68,1.68,1.68c0.342,0,0.655-0.085,0.911-0.257
		l2.534,1.652c-0.057,0.171-0.085,0.342-0.085,0.513c0,0.94,0.74,1.68,1.68,1.68s1.737-0.768,1.737-1.708
		C300.022,420.082,299.253,419.341,298.341,419.341z"/>
</g>
</svg>
