<?xml version="1.0" encoding="utf-8"?>
<!-- Generator: Adobe Illustrator 16.0.0, SVG Export Plug-In . SVG Version: 6.00 Build 0)  -->
<!DOCTYPE svg PUBLIC "-//W3C//DTD SVG 1.1//EN" "http://www.w3.org/Graphics/SVG/1.1/DTD/svg11.dtd">
<svg version="1.1" id="Calque_1" xmlns="http://www.w3.org/2000/svg" xmlns:xlink="http://www.w3.org/1999/xlink" x="0px" y="0px"
	 width="20px" height="20px" viewBox="0 0 20 20" enable-background="new 0 0 20 20" xml:space="preserve">
<g id="layout">
	<g>
		<rect fill="none" width="20" height="20"/>
		<rect x="2.93" y="7.98" fill="#FFFFFF" width="4.04" height="4.04"/>
		<rect x="13.02" y="7.98" fill="#FFFFFF" width="4.041" height="4.04"/>
		<rect x="7.98" y="7.98" fill="#FFFFFF" width="4.049" height="4.04"/>
		<rect x="7.98" y="13.02" fill="#FFFFFF" width="4.049" height="4.041"/>
		<rect x="2.93" y="13.02" fill="#FFFFFF" width="4.04" height="4.041"/>
		<rect x="1.88" y="3.77" fill="#FFFFFF" width="16.41" height="3"/>
		<g>
			<path fill="#FFFFFF" d="M4.96,6.52c-0.55,0-1-0.45-1-1v-3.5c0-0.55,0.45-1,1-1s1,0.45,1,1v3.5C5.96,6.08,5.51,6.52,4.96,6.52z"/>
		</g>
		<g>
			<path fill="#FFFFFF" d="M15.04,6.52c-0.55,0-1-0.45-1-1v-3.5c0-0.55,0.45-1,1-1s1,0.45,1,1v3.5C16.04,6.08,15.6,6.52,15.04,6.52z
				"/>
		</g>
		<path fill="#FFFFFF" d="M16.3,12.6c-2.044,0-3.7,1.656-3.7,3.7s1.656,3.7,3.7,3.7s3.7-1.656,3.7-3.7S18.344,12.6,16.3,12.6z
			 M18.23,16.93H16.93v1.29c0,0.351-0.279,0.63-0.63,0.63c-0.35,0-0.63-0.279-0.63-0.63v-1.29h-1.29c-0.351,0-0.63-0.279-0.63-0.63
			c0-0.35,0.279-0.63,0.63-0.63h1.29v-1.29c0-0.35,0.28-0.63,0.63-0.63c0.351,0,0.63,0.28,0.63,0.63v1.29h1.301
			c0.34,0,0.629,0.28,0.629,0.63C18.859,16.65,18.58,16.93,18.23,16.93z"/>
		<g>
			<path fill="#FFFFFF" d="M13.069,18.07H2.43c-0.28,0-0.5-0.221-0.5-0.5V4.43c0-0.28,0.22-0.5,0.5-0.5h15.13
				c0.279,0,0.5,0.22,0.5,0.5v8.634c0.384,0.209,0.724,0.479,1.01,0.806V4.92c0.01-1.1-0.891-2-1.99-2H2.92c-1.1,0-2,0.9-2,2v12.15
				c0,1.1,0.9,2,2,2h10.95C13.547,18.787,13.278,18.45,13.069,18.07z"/>
		</g>
		<g>
			<path fill="#FFFFFF" d="M14.621,13.02H13.02v1.602C13.373,13.932,13.932,13.373,14.621,13.02z"/>
		</g>
	</g>
</g>
<g id="nav__x2B__footer">
</g>
<g id="Menu_ouvert">
</g>
</svg>
