<?xml version="1.0" encoding="utf-8"?>
<!-- Generator: Adobe Illustrator 16.0.0, SVG Export Plug-In . SVG Version: 6.00 Build 0)  -->
<!DOCTYPE svg PUBLIC "-//W3C//DTD SVG 1.1//EN" "http://www.w3.org/Graphics/SVG/1.1/DTD/svg11.dtd">
<svg version="1.1" xmlns="http://www.w3.org/2000/svg" xmlns:xlink="http://www.w3.org/1999/xlink" x="0px" y="0px" width="440px"
	 height="240px" viewBox="0 0 440 240" enable-background="new 0 0 440 240" xml:space="preserve">
<g id="layout">
</g>
<g id="nav__x2B__footer">
	<rect fill="#F2F2F2" width="440" height="240"/>
	<g>
		<g>
			<rect x="115" y="15" fill="none" width="210" height="210"/>
		</g>
		<path fill="#9D9FA2" d="M242.98,133.83c7.89-6.59,12.91-16.49,12.91-27.55c0-19.83-16.07-35.9-35.9-35.9
			c-19.82,0-35.88,16.08-35.88,35.9c0,11.06,5.01,20.96,12.91,27.55c-20.9,8.93-35.55,29.67-35.55,53.83h117.05
			C278.52,163.5,263.88,142.76,242.98,133.83z"/>
		<path fill="#9D9FA2" d="M184.85,131.74c-5.32-7.33-8.25-16.2-8.25-25.46c0-18.18,11.24-33.77,27.13-40.22
			c-6.57-8.3-16.61-13.71-28.03-13.71c-19.82,0-35.88,16.06-35.88,35.89c0,11.07,5.02,20.97,12.91,27.55
			c-20.9,8.94-35.55,29.67-35.55,53.83h39.35C160.96,154.03,170.96,140.47,184.85,131.74z"/>
		<path fill="#9D9FA2" d="M263.41,106.29c0,9.25-2.94,18.13-8.27,25.46c13.9,8.72,23.89,22.29,28.32,37.87h39.35
			c0-24.16-14.65-44.89-35.54-53.83c7.89-6.58,12.92-16.48,12.92-27.55c0-19.83-16.07-35.89-35.91-35.89
			c-11.41,0-21.44,5.42-28.02,13.71C252.15,72.52,263.41,88.1,263.41,106.29z"/>
	</g>
</g>
<g id="Menu_ouvert">
</g>
</svg>
