<?xml version="1.0" encoding="utf-8"?>
<!-- Generator: Adobe Illustrator 16.0.0, SVG Export Plug-In . SVG Version: 6.00 Build 0)  -->
<!DOCTYPE svg PUBLIC "-//W3C//DTD SVG 1.1//EN" "http://www.w3.org/Graphics/SVG/1.1/DTD/svg11.dtd">
<svg version="1.1" xmlns="http://www.w3.org/2000/svg" xmlns:xlink="http://www.w3.org/1999/xlink" x="0px" y="0px" width="20.02px"
	 height="20px" viewBox="0 0 20.02 20" enable-background="new 0 0 20.02 20" xml:space="preserve">
<g id="layout">
	<g display="none" opacity="0.3">
		<path display="inline" d="M10,0C5.81,0,2.42,3.4,2.42,7.58c0,4.19,7.58,12.34,7.58,12.34s7.58-8.15,7.58-12.34
			C17.58,3.4,14.18,0,10,0z M10,10.61c-1.67,0-3.02-1.35-3.02-3.03c0-1.67,1.35-3.02,3.02-3.02c1.67,0,3.02,1.35,3.02,3.02
			C13.02,9.25,11.67,10.61,10,10.61z"/>
		<rect display="inline" fill="none" width="20" height="20"/>
	</g>
	<g opacity="0.3">
		<rect fill="none" width="20" height="20"/>
		<rect x="13.83" y="11.48" width="1.42" height="1.8"/>
		<rect x="16.14" y="11.48" width="1.42" height="1.8"/>
		<path d="M19.05,8.55H9.38C8.76,6.61,6.96,5.19,4.81,5.19C2.16,5.19,0,7.34,0,10c0,2.66,2.16,4.81,4.81,4.81
			c2.14,0,3.93-1.4,4.56-3.33h9.69l0.97-1.46L19.05,8.55z M2.81,11.72c-0.95,0-1.72-0.77-1.72-1.72s0.77-1.72,1.72-1.72
			c0.95,0,1.72,0.77,1.72,1.72S3.77,11.72,2.81,11.72z"/>
	</g>
</g>
<g id="nav__x2B__footer">
</g>
<g id="Menu_ouvert">
</g>
</svg>
