<?xml version="1.0" encoding="utf-8"?>
<svg version="1.1" xmlns="http://www.w3.org/2000/svg" xmlns:xlink="http://www.w3.org/1999/xlink" x="0px" y="0px" width="30px"
	 height="30px" viewBox="0 0 30 30" enable-background="new 0 0 30 30" xml:space="preserve">
<g>
    <rect fill="none" width="30" height="30"/>
    <path fill="#FFFFFF" d="M18.28,16.98c1.13-0.94,1.84-2.36,1.84-3.94c0-2.83-2.29-5.13-5.13-5.13c-2.83,0-5.13,2.3-5.13,5.13
        c0,1.58,0.72,3,1.84,3.94c-2.99,1.28-5.08,4.24-5.08,7.69h16.72C23.36,21.21,21.27,18.25,18.28,16.98z"/>
    <path fill="#FFFFFF" d="M9.98,16.68c-0.76-1.05-1.18-2.32-1.18-3.64c0-2.6,1.61-4.82,3.88-5.75c-0.94-1.19-2.37-1.96-4-1.96
        c-2.83,0-5.13,2.29-5.13,5.13c0,1.58,0.72,3,1.84,3.94c-2.99,1.28-5.08,4.24-5.08,7.69h5.62C6.57,19.86,7.99,17.92,9.98,16.68z"/>
    <path fill="#FFFFFF" d="M21.2,13.04c0,1.32-0.42,2.59-1.18,3.64c1.99,1.25,3.41,3.18,4.04,5.41h5.62c0-3.45-2.09-6.41-5.08-7.69
        c1.13-0.94,1.84-2.35,1.84-3.94c0-2.83-2.3-5.13-5.13-5.13c-1.63,0-3.06,0.77-4,1.96C19.59,8.22,21.2,10.44,21.2,13.04z"/>
</g>
</svg>
