<?xml version="1.0" encoding="utf-8"?>
<!-- Generator: Adobe Illustrator 16.0.0, SVG Export Plug-In . SVG Version: 6.00 Build 0)  -->
<!DOCTYPE svg PUBLIC "-//W3C//DTD SVG 1.1//EN" "http://www.w3.org/Graphics/SVG/1.1/DTD/svg11.dtd">
<svg version="1.1" xmlns="http://www.w3.org/2000/svg" xmlns:xlink="http://www.w3.org/1999/xlink" x="0px" y="0px" width="20px"
	 height="20px" viewBox="0 0 20 20" enable-background="new 0 0 20 20" xml:space="preserve">
<g id="layout">
	<g opacity="0.3">
		<rect fill="none" width="20" height="20"/>
		<path d="M10,1.5c-4.69,0-8.5,3.81-8.5,8.5c0,4.69,3.81,8.5,8.5,8.5s8.5-3.81,8.5-8.5C18.5,5.31,14.69,1.5,10,1.5z M13.53,12.95
			c-0.29,0.32-0.68,0.49-1.08,0.49c-0.35,0-0.69-0.12-0.97-0.37l-2.44-2.17c-0.01-0.01-0.01-0.02-0.03-0.03
			c-0.08-0.08-0.13-0.17-0.2-0.26c-0.04-0.07-0.1-0.12-0.13-0.2c-0.03-0.07-0.04-0.16-0.06-0.24c-0.03-0.11-0.06-0.2-0.06-0.31
			c0-0.02-0.01-0.03-0.01-0.04v-4.8c0-0.8,0.65-1.45,1.45-1.45c0.8,0,1.45,0.64,1.45,1.45v4.15l1.96,1.75
			C14.01,11.44,14.06,12.36,13.53,12.95z"/>
	</g>
</g>
<g id="nav__x2B__footer">
</g>
<g id="Menu_ouvert">
</g>
</svg>
